<svg id="icono" xmlns="http://www.w3.org/2000/svg" viewBox="0 0 212 221.53"><path d="M357.56,617.09H235.93V590.16L294.23,603a10.28,10.28,0,0,0,4.45,0l58.88-13.11Z" transform="translate(-191.08 -548.84)" fill="#fff"/><path d="M199.73,576l96.44,22.44a2,2,0,0,0,1,0L393.26,576a2.12,2.12,0,0,0,0-4.13L296,548.9a2.07,2.07,0,0,0-1,0l-95.31,22.92A2.12,2.12,0,0,0,199.73,576Z" transform="translate(-191.08 -548.84)" fill="#fff"/><path d="M374,624H240c-14.57,0-26.38,10.33-26.38,23.07h0c0,12.74,11.81,23.07,26.38,23.07H375.36c14.2,0,25.72,10.07,25.72,22.49h0c0,12.42-11.52,22.49-25.72,22.49H223.53c-16.82,0-30.45,11.92-30.45,26.62h0c0,14.7,13.63,26.62,30.45,26.62h171.7" transform="translate(-191.08 -548.84)" fill="none" stroke="#fff" stroke-miterlimit="10" stroke-width="4"/><path d="M371,632.54H239.66c-9.09,0-16.46,6.65-16.46,14.84h0c0,8.2,7.37,14.84,16.46,14.84H370.8" transform="translate(-191.08 -548.84)" fill="#fff"/><path d="M385.72,724.57H224.16c-11.2,0-20.27,7.93-20.27,17.7h0C203.89,752,213,760,224.16,760H385.53" transform="translate(-191.08 -548.84)" fill="#fff"/><path d="M230.23,678.37H374.71c9.88,0,16.07,6.47,16.07,14.46h0c0,8-6.19,14.46-16.07,14.46H230.41" transform="translate(-191.08 -548.84)" fill="#fff"/><line x1="44.05" y1="93.02" x2="54.01" y2="93.02" fill="none" stroke="#1d1d1b" stroke-miterlimit="10" stroke-width="2"/><line x1="44.05" y1="104.76" x2="174.01" y2="104.76" fill="none" stroke="#1d1d1b" stroke-miterlimit="10" stroke-width="2"/><line x1="56.87" y1="93.36" x2="147.5" y2="93.36" fill="none" stroke="#1d1d1b" stroke-miterlimit="10" stroke-width="2"/><line x1="150.5" y1="93.36" x2="174.01" y2="93.36" fill="none" stroke="#1d1d1b" stroke-miterlimit="10" stroke-width="2"/><line x1="47.85" y1="139.39" x2="183.54" y2="139.39" fill="none" stroke="#1d1d1b" stroke-miterlimit="10" stroke-width="2"/><line x1="47.85" y1="149.35" x2="156.12" y2="149.35" fill="none" stroke="#1d1d1b" stroke-miterlimit="10" stroke-width="2"/><line x1="160.03" y1="149.35" x2="183.54" y2="149.35" fill="none" stroke="#1d1d1b" stroke-miterlimit="10" stroke-width="2"/><line x1="27.67" y1="184.02" x2="186.22" y2="184.02" fill="none" stroke="#1d1d1b" stroke-miterlimit="10" stroke-width="2"/><line x1="27.67" y1="201.83" x2="186.22" y2="201.83" fill="none" stroke="#1d1d1b" stroke-miterlimit="10" stroke-width="2"/><line x1="30.21" y1="193.8" x2="44.2" y2="193.8" fill="none" stroke="#1d1d1b" stroke-miterlimit="10" stroke-width="2"/><line x1="48.2" y1="193.8" x2="151.5" y2="193.8" fill="none" stroke="#1d1d1b" stroke-miterlimit="10" stroke-width="2"/><line x1="155.83" y1="193.8" x2="179.34" y2="193.8" fill="none" stroke="#1d1d1b" stroke-miterlimit="10" stroke-width="2"/></svg>